HIERARCHY
ROOT Hips
{
  OFFSET 13.6774 106.653 -34.4427
  CHANNELS 6 Xposition Yposition Zposition Zrotation Xrotation Yrotation
  JOINT ToSpine
  {
    OFFSET -2.69724 7.43032 -0.144315
    CHANNELS 3 Zrotation Xrotation Yrotation
    JOINT Spine
    {
      OFFSET -0.0310711 10.7595 1.96963
      CHANNELS 3 Zrotation Xrotation Yrotation
      JOINT Spine1
      {
        OFFSET 19.9056 3.91189 0.764692
        CHANNELS 3 Zrotation Xrotation Yrotation
        JOINT Neck
        {
          OFFSET 25.9749 7.03908 -0.130764
          CHANNELS 3 Zrotation Xrotation Yrotation
          JOINT Head
          {
            OFFSET 9.52751 0.295786 -0.907742
            CHANNELS 3 Zrotation Xrotation Yrotation
            End Site
            {
              OFFSET 16.4037 0.713936 2.7358
            }
          }
        }
        JOINT LeftShoulder
        {
          OFFSET 17.7449 4.33886 11.7777
          CHANNELS 3 Zrotation Xrotation Yrotation
          JOINT LeftArm
          {
            OFFSET 0.911315 1.27913 9.80584
            CHANNELS 3 Zrotation Xrotation Yrotation
            JOINT LeftForeArm
            {
              OFFSET 28.6126 1.18197 -3.53199
              CHANNELS 3 Zrotation Xrotation Yrotation
              JOINT LeftHand
              {
                OFFSET 27.5088 0.0218783 0.327423
                CHANNELS 3 Zrotation Xrotation Yrotation
                End Site
                {
                  OFFSET 18.6038 -0.000155887 0.382096
                }
              }
            }
          }
        }
        JOINT RightShoulder
        {
          OFFSET 17.1009 2.89543 -12.2328
          CHANNELS 3 Zrotation Xrotation Yrotation
          JOINT RightArm
          {
            OFFSET 1.4228 0.178766 -10.211
            CHANNELS 3 Zrotation Xrotation Yrotation
            JOINT RightForeArm
            {
              OFFSET 28.733 1.87905 2.64907
              CHANNELS 3 Zrotation Xrotation Yrotation
              JOINT RightHand
              {
                OFFSET 27.4588 0.290562 -0.101845
                CHANNELS 3 Zrotation Xrotation Yrotation
                End Site
                {
                  OFFSET 17.8396 -0.255518 -0.000602873
                }
              }
            }
          }
        }
      }
    }
  }
  JOINT LeftUpLeg
  {
    OFFSET -5.61296 -2.22332 -10.2353
    CHANNELS 3 Zrotation Xrotation Yrotation
    JOINT LeftLeg
    {
      OFFSET 2.56703 -44.7417 -7.93097
      CHANNELS 3 Zrotation Xrotation Yrotation
      JOINT LeftFoot
      {
        OFFSET 3.16933 -46.5642 -3.96578
        CHANNELS 3 Zrotation Xrotation Yrotation
        JOINT LeftToeBase
        {
          OFFSET 0.346054 -6.02161 12.8035
          CHANNELS 3 Zrotation Xrotation Yrotation
          End Site
          {
            OFFSET 0.134235 -1.35082 5.13018
          }
        }
      }
    }
  }
  JOINT RightUpLeg
  {
    OFFSET -5.7928 -1.72406 10.6446
    CHANNELS 3 Zrotation Xrotation Yrotation
    JOINT RightLeg
    {
      OFFSET -2.57161 -44.7178 -7.85259
      CHANNELS 3 Zrotation Xrotation Yrotation
      JOINT RightFoot
      {
        OFFSET -3.10148 -46.5936 -4.03391
        CHANNELS 3 Zrotation Xrotation Yrotation
        JOINT RightToeBase
        {
          OFFSET -0.0828122 -6.13587 12.8035
          CHANNELS 3 Zrotation Xrotation Yrotation
          End Site
          {
            OFFSET -0.131328 -1.35082 5.13018
          }
        }
      }
    }
  }
}
MOTION
Frames: 15
Frame Time: 0.03333333333333333
0.0000 93.1000 0.0000 25.1557 -56.3602 -52.0284 -71.3336 -0.0616 87.5706 123.9452 74.3325 -41.6029 -1.2227 27.4673 -3.5674 -116.0785 17.2955 -173.8861 -159.3813 53.6169 -159.4843 -0.0611 -12.9330 -20.8665 -103.4082 44.4322 -113.1606 15.7566 -6.4339 -108.8745 -0.0529 -0.4506 0.3677 -1.7549 11.1877 23.9444 -86.0583 -56.2383 126.2587 19.5102 10.4020 115.6704 0.2820 0.7004 0.7369 -8.0538 9.0116 77.7200 -6.1001 56.7284 -12.0224 1.3285 -8.3770 -1.1155 0.4684 -1.4085 -2.9231 -56.5932 -5.6267 78.0947 2.1291 42.2562 3.8467 -5.9076 -9.7781 1.0672 2.2789 -30.1902 -19.6598 
0.0000 93.1000 0.0000 19.3726 -60.0864 -59.0601 -71.3526 -0.3124 87.5969 122.0502 74.5883 -38.1303 -1.2796 27.1439 -4.0732 -116.0825 18.2157 -169.4707 -163.2708 53.5936 -155.2259 -0.2331 -12.1989 -21.8700 -107.0550 42.6866 -110.2381 14.5911 -6.4282 -110.5680 0.0007 -0.5323 0.0610 -1.9136 11.6258 21.9911 -78.6665 -56.4610 132.8406 21.9388 11.2224 116.4763 0.3883 0.3262 0.6301 -10.9758 11.7759 78.0449 -5.7246 55.8583 -9.9509 0.1223 -8.5866 -1.0388 0.4818 -0.7828 -2.6213 -56.5202 -7.0075 77.1700 2.0816 41.2243 4.3372 -4.5429 -9.7204 0.7959 2.5264 -31.1393 -20.4213 
0.0000 93.1000 0.0000 12.1394 -63.0232 -66.4530 -71.2490 -0.3735 87.7828 115.3951 75.2013 -30.4118 0.3721 27.4329 -6.1107 -115.9988 18.0111 -173.5610 -156.5998 53.5142 -162.8940 -0.3335 -12.0450 -20.1769 -108.9642 44.8434 -107.6384 16.0250 -7.1853 -111.2378 -0.2996 -0.4142 -0.6223 -1.8361 10.7430 22.2962 -74.9062 -54.4868 136.6208 19.8465 10.8950 118.6926 0.1857 -0.0389 0.6690 -13.0084 15.2274 79.5840 -6.1369 54.5158 -9.4927 -0.0564 -7.4233 -1.0738 0.7309 -2.8298 0.0354 -55.9301 -8.7069 74.3388 1.3169 40.0294 -3.6693 -3.9671 -9.9596 0.9564 0.6971 -27.2793 -1.9609 
0.0000 93.1000 0.0000 5.0300 -64.7105 -75.6093 -71.2373 -0.0141 87.8028 114.8260 75.3918 -29.3491 0.8883 27.7427 -6.1684 -118.0217 18.0532 -171.6582 -158.5538 53.4107 -163.4622 -0.3694 -11.4083 -18.8899 -110.4151 45.7856 -104.4534 17.3256 -8.4842 -112.8445 -0.3112 -0.1795 -1.0037 -1.4373 9.7294 21.5826 -68.3900 -52.6896 141.9073 16.5374 9.8466 120.8816 0.1780 -0.1683 1.3068 -15.7489 18.1278 81.8422 -5.3533 52.0649 -8.3669 -0.7748 -6.1087 -0.9939 0.9732 -2.7818 -1.3964 -55.5464 -9.0270 74.7042 1.0747 40.2737 -0.6704 -3.2389 -10.4113 0.6240 1.8322 -27.1478 -7.9759 
0.0000 93.1000 0.0000 -3.8190 -66.9942 -86.8980 -71.3312 -0.1319 87.7423 111.7420 74.7817 -26.4663 1.7728 27.4937 -6.0672 -118.3032 18.5383 -170.1546 -158.6949 53.2779 -162.6818 -0.1449 -11.9249 -18.8909 -112.7263 45.8466 -100.7422 18.2572 -9.3439 -113.9450 -0.2258 -0.1194 -1.0447 -1.1202 9.4633 19.9526 -63.4549 -52.5365 146.1210 17.4561 10.6872 120.3656 0.3963 -0.0978 1.6052 -19.6185 21.0254 84.8839 -4.0166 49.2885 -8.1957 -1.2078 -4.2030 -0.7308 1.2060 -4.1358 -1.0889 -55.0720 -8.8602 77.4027 1.4855 38.9991 -2.8916 -3.2021 -10.2229 0.7182 1.8708 -25.3147 -6.2624 
0.0000 93.1000 0.0000 -12.4435 -67.0464 -96.1585 -71.4026 0.1259 87.7243 108.8164 74.7748 -24.4380 1.7586 27.3406 -6.5107 -117.4203 18.8447 -169.3484 -159.5829 53.2340 -163.0012 -0.0141 -11.9980 -18.9202 -115.3865 44.9349 -96.8861 19.0209 -10.0193 -114.7547 -0.0914 0.0443 -0.8169 -0.8393 9.2077 19.7777 -60.9556 -51.5790 148.8513 18.0277 10.8265 119.2714 0.4228 0.2738 2.0959 -23.6798 21.9992 87.0645 -4.1327 45.1815 -6.1014 -2.0351 -1.3750 -0.2074 0.5971 -2.4108 -3.5147 -55.0126 -7.9526 81.0495 1.4569 38.9531 -2.3423 -2.1235 -10.7668 0.7156 2.2510 -22.8424 -5.7609 
0.0000 93.1000 0.0000 -18.4114 -67.2474 -103.4348 -71.4629 0.1182 87.5999 103.8709 74.3230 -19.0414 2.0524 26.7641 -7.5367 -115.6557 19.4862 -167.4625 -159.5264 53.4246 -159.7053 0.0880 -11.9477 -18.8627 -117.9438 43.0213 -92.1202 19.0693 -10.5515 -115.8791 -0.2370 0.3700 -1.0576 -0.9214 9.6385 19.4272 -58.4655 -52.2179 150.3923 18.9774 10.8033 118.7684 0.8964 -0.1001 1.9786 -27.0857 22.8380 87.8260 -3.7261 41.1072 -2.6410 -2.7342 2.0362 -0.1101 0.1532 -0.6204 -3.6996 -54.8529 -6.9810 83.4627 0.8297 37.3094 -1.1713 -2.3694 -10.0840 0.8743 2.2259 -22.0715 -4.3619 
0.0000 93.1000 0.0000 -22.4251 -67.1950 -108.6291 -71.5042 0.0894 87.5556 98.7214 74.0487 -13.6227 3.2863 25.9111 -8.0220 -115.6367 19.3761 -167.4439 -158.8994 53.4785 -161.6001 0.2448 -11.4684 -17.8945 -120.2757 41.9618 -89.1022 18.1376 -10.3210 -116.6546 -0.3272 0.5626 -1.2453 -1.1742 9.6602 19.4187 -57.2286 -51.7007 151.6436 18.6167 10.8851 118.6220 0.8542 -0.4911 2.0954 -30.0000 22.5805 89.0176 -2.5206 37.4624 -1.6587 -3.0930 3.3159 0.0285 -1.6529 2.9207 -1.3267 -54.9473 -5.9837 83.4648 1.0620 34.8450 0.8616 -2.2294 -10.3103 0.9279 1.7084 -21.5264 -1.2203 
0.0000 93.1000 0.0000 -25.8945 -67.2052 -111.7497 -71.5609 0.1803 87.7790 94.9953 73.9796 -9.5562 3.9537 25.7955 -8.7471 -114.6610 19.0642 -170.7348 -154.6238 53.2418 -163.4242 0.4846 -12.0022 -17.6449 -121.6257 41.9699 -87.0800 18.6398 -11.0263 -117.0661 0.0190 0.6363 -1.4708 -1.1638 9.8793 19.5964 -56.5269 -51.6274 151.6070 17.5614 10.6788 119.0304 0.9676 -0.5042 2.3555 -31.8141 22.9102 90.8760 -2.6504 35.3666 -4.5596 -4.5949 1.8008 0.0627 -2.0904 3.8101 0.0773 -55.1554 -6.2857 82.4275 1.2306 34.1750 3.3489 -1.8903 -11.3091 1.1369 1.8289 -20.5746 -0.0681 
0.0000 93.1000 0.0000 -28.0464 -67.3445 -116.2114 -71.5293 0.1386 87.7233 93.8653 73.3348 -7.5917 4.1796 24.9417 -8.8004 -115.7170 19.0404 -170.5714 -154.2909 53.2331 -165.2776 0.5969 -12.1685 -17.4489 -123.5646 41.9189 -85.2516 18.6400 -11.3860 -117.6147 0.0344 0.4938 -1.5168 -1.0507 9.8726 19.5368 -56.4409 -51.7469 152.1885 16.9712 10.2123 119.5566 0.9646 -0.4769 2.2853 -32.8872 22.6275 92.0035 -3.6797 37.3321 -12.2003 -7.2035 -1.1381 0.2178 0.1247 -2.5583 1.2535 -54.8120 -5.7404 81.3532 1.0514 34.1261 3.6594 -3.0051 -12.4663 1.2794 1.4528 -17.8731 0.3885 
0.0000 93.1000 0.0000 -30.0718 -66.3563 -118.1504 -71.5030 0.0943 87.7302 91.6249 72.8686 -5.3847 4.8433 24.4967 -8.8205 -116.6552 18.9680 -170.5985 -157.2650 53.4065 -162.7100 0.5729 -12.2796 -18.1107 -124.8467 41.3317 -84.1839 19.1902 -12.1775 -118.0152 0.1238 0.5819 -1.2551 -0.9328 9.9875 19.4393 -57.0247 -51.9262 152.3312 16.7829 9.8394 118.9941 0.3513 -0.1303 2.3132 -32.7772 21.2081 91.4872 -4.2014 42.0515 -13.8855 -7.5295 -4.4249 0.0994 0.9549 -4.6920 2.7569 -54.1882 -5.0256 82.5810 -0.4187 34.1453 4.0316 -2.8776 -14.2883 1.0375 1.2855 -15.8591 -2.8716 
0.0000 93.1000 0.0000 -33.1947 -66.2095 -121.3116 -71.5157 0.1387 87.7764 89.7774 73.0520 -3.0333 5.1026 24.1698 -8.4137 -117.4378 18.7168 -171.1656 -156.4420 53.2754 -163.7189 0.3734 -12.5978 -19.0006 -125.7640 41.5473 -83.0748 19.8595 -12.8359 -119.1330 0.2732 0.3146 -0.8259 -0.6891 9.3498 19.2561 -57.3186 -51.9584 152.4221 15.7726 9.7304 119.5390 0.1477 0.5530 2.7041 -33.3342 20.8253 91.7135 -3.8574 44.1421 -12.4191 -7.8468 -5.4741 0.0676 1.8205 -6.8165 1.9285 -53.9065 -4.3224 83.5736 -0.4778 34.1252 1.9065 -3.2980 -15.1556 0.8429 1.5382 -13.3090 -2.4687 
0.0000 93.1000 0.0000 -37.1477 -65.5918 -126.6152 -71.4669 -0.0683 87.7696 88.9766 73.0042 -1.5978 5.7133 24.5032 -8.3895 -117.4662 18.9142 -168.7473 -158.2123 53.4002 -163.2502 0.6137 -12.1725 -19.5596 -125.4084 41.8249 -82.1802 20.1492 -13.0281 -120.1485 0.1259 0.3271 -1.1683 -0.8449 9.6484 18.8126 -56.5148 -51.8433 152.6468 16.1016 9.8730 119.2280 0.5513 0.0687 2.3177 -35.1517 19.7067 93.2485 -4.0070 42.7684 -8.0417 -7.3005 -4.9198 -0.1026 2.3648 -6.7726 1.7628 -53.9733 -4.0806 84.1397 0.3377 34.1841 3.4143 -3.2735 -16.1910 0.9388 0.9189 -10.5122 -2.1587 
0.0000 93.1000 0.0000 -41.1199 -64.4653 -131.0758 -71.4695 0.2066 87.7845 89.6921 72.7242 -0.9130 6.1492 24.5977 -8.9464 -117.3104 18.4635 -168.8692 -156.6553 53.2209 -163.9647 0.9568 -11.8842 -19.5623 -125.7437 41.4594 -80.0296 19.5564 -13.1104 -119.8743 0.0291 0.5102 -1.2121 -0.7849 9.5957 19.6075 -57.3163 -51.3964 151.7716 15.1646 9.3491 119.7010 0.2511 0.0825 2.1546 -37.1885 20.5800 94.9900 -3.8361 40.4754 -5.6126 -6.5972 -4.0941 -0.2506 2.2502 -6.2244 0.4081 -53.1520 -3.7503 86.0267 -1.1870 34.1357 4.3099 -5.0673 -17.0793 1.0167 1.1840 -11.2846 -2.3039 
0.0000 93.1000 0.0000 -43.1789 -63.4834 -132.8480 -71.4160 -0.0100 87.6644 86.0037 73.0125 1.9884 6.4160 24.8182 -9.4081 -117.4607 18.7669 -168.8958 -155.5712 53.2779 -165.3440 0.6827 -11.0918 -18.5390 -125.7495 41.6592 -78.9363 20.2759 -13.6603 -120.0888 -0.0037 0.1902 -1.2261 -0.9899 9.8689 21.6842 -58.3226 -50.1185 150.1760 14.9046 9.0572 119.8844 0.0316 0.2350 2.0215 -38.1914 20.2547 94.9503 -3.1207 39.4700 -6.0291 -6.8098 -3.5680 -0.2691 2.9213 -7.9551 -0.8319 -53.1424 -3.7747 87.4589 -0.8793 34.1914 5.5340 -4.8867 -17.1547 0.9447 0.9898 -12.1937 -1.1096 
